<mxfile host="app.diagrams.net" modified="2023-04-07T10:55:08.337Z" agent="Mozilla/5.0 (Macintosh; Intel Mac OS X 10_15_7) AppleWebKit/537.36 (KHTML, like Gecko) Chrome/111.0.0.0 Safari/537.36" version="21.1.5" etag="BR28iJJgmpr98DWBID-D" type="github">
  <diagram name="第 1 页" id="wWnXoSBwvu9gny_bQMAQ">
    <mxGraphModel>
      <root>
        <mxCell id="0" />
        <mxCell id="1" parent="0" />
      </root>
    </mxGraphModel>
  </diagram>
</mxfile>
